<?xml version="1.0" encoding="utf-8"?>
<!-- Generator: Adobe Illustrator 19.0.1, SVG Export Plug-In . SVG Version: 6.00 Build 0)  -->
<!DOCTYPE svg PUBLIC "-//W3C//DTD SVG 1.1//EN" "http://www.w3.org/Graphics/SVG/1.1/DTD/svg11.dtd">
<svg version="1.1" id="Layer_1" xmlns="http://www.w3.org/2000/svg" xmlns:xlink="http://www.w3.org/1999/xlink" x="0px" y="0px"
	 viewBox="542.1 224.6 1317 335" style="enable-background:new 542.1 224.6 1317 335;" xml:space="preserve">
<style type="text/css">
	.st0{fill:none;stroke:#A3B8C4;stroke-width:12.2716;stroke-linecap:round;stroke-linejoin:round;stroke-miterlimit:10;}
	.st1{fill:#0B4570;}
	.st2{fill:#008FD6;}
	.st3{fill:#33A1D8;}
	.st4{fill:#79C9E8;}
	.st5{fill:#FF4545;}
	.st6{fill:#B20000;}
</style>
<g>
	<g>
		<path class="st0" d="M1090.7,367"/>
	</g>
</g>
<g>
	<path class="st1" d="M1141.7,335c0-9.6,7.6-17.2,17.2-17.2h46.8c37.4,0,60,22.2,60,54.2v0.4c0,36.3-28.2,55.1-63.3,55.1h-26.2v31.1
		c0,9.6-7.6,17.2-17.2,17.2c-9.6,0-17.2-7.6-17.2-17.2L1141.7,335L1141.7,335z M1203.4,396.8c17.2,0,27.3-10.3,27.3-23.7v-0.4
		c0-15.4-10.7-23.7-28-23.7h-26.6v47.9L1203.4,396.8L1203.4,396.8z"/>
	<path class="st1" d="M1269.9,439.9v-0.4c0-26.2,19.9-38.3,48.3-38.3c12.1,0,20.8,2,29.3,4.9v-2c0-14.1-8.7-21.9-25.7-21.9
		c-9.4,0-17,1.3-23.5,3.4c-2,0.7-3.4,0.9-4.9,0.9c-7.8,0-14.1-6-14.1-13.9c0-6,3.8-11.2,9.2-13.2c10.7-4,22.4-6.3,38.3-6.3
		c18.6,0,32,4.9,40.5,13.4c9,9,13,22.2,13,38.3v54.6c0,9.2-7.4,16.3-16.6,16.3c-9.8,0-16.3-6.9-16.3-14.1v-0.2
		c-8.3,9.2-19.7,15.2-36.3,15.2C1288.5,476.6,1269.9,463.7,1269.9,439.9z M1348,432.1v-6c-5.8-2.7-13.4-4.5-21.7-4.5
		c-14.5,0-23.5,5.8-23.5,16.6v0.4c0,9.2,7.6,14.5,18.6,14.5C1337.2,453.1,1348,444.4,1348,432.1z"/>
	<path class="st1" d="M1521.9,458.7c0,9.4-7.6,17-17,17s-17-7.6-17-17v-1.6c-8.3,11.2-19.7,19.5-37.4,19.5c-28,0-54.6-21.9-54.6-62
		v-0.4c0-40.1,26.2-62,54.6-62c18.1,0,29.3,8.3,37.4,17.9v-43.4c0-9.4,7.6-17,17-17s17,7.6,17,17V458.7z M1429.9,414.2v0.4
		c0,19.9,13.4,33.1,29.3,33.1c15.9,0,29.1-13.2,29.1-33.1v-0.4c0-19.9-13.2-33.1-29.1-33.1C1443.3,381.1,1429.9,394.1,1429.9,414.2z
		"/>
	<path class="st1" d="M1664.6,458.7c0,9.4-7.6,17-17,17s-17-7.6-17-17v-1.6c-8.3,11.2-19.7,19.5-37.4,19.5c-28,0-54.6-21.9-54.6-62
		v-0.4c0-40.1,26.2-62,54.6-62c18.1,0,29.3,8.3,37.4,17.9v-43.4c0-9.4,7.6-17,17-17s17,7.6,17,17V458.7z M1572.7,414.2v0.4
		c0,19.9,13.4,33.1,29.3,33.1s29.1-13.2,29.1-33.1v-0.4c0-19.9-13.2-33.1-29.1-33.1C1586.1,381.1,1572.7,394.1,1572.7,414.2z"/>
	<path class="st1" d="M1688.4,326.7c0-9.4,7.6-17,17-17s17,7.6,17,17v132c0,9.4-7.6,17-17,17s-17-7.6-17-17V326.7z"/>
	<path class="st1" d="M1802.9,477.1c-36,0-62.7-25.3-62.7-62v-0.4c0-34.2,24.4-62.4,59.3-62.4c40.1,0,57.7,32.9,57.7,57.7
		c0,9.8-6.9,16.3-15.9,16.3h-67.4c3.4,15.4,14.1,23.5,29.3,23.5c9.4,0,17.2-2.9,24.2-8.1c2.5-1.8,4.7-2.7,8.3-2.7
		c7.6,0,13.2,5.8,13.2,13.4c0,4.5-2,7.8-4.5,10.1C1834,471.5,1820.4,477.1,1802.9,477.1z M1824.9,405c-2-15.2-11-25.5-25.3-25.5
		c-14.1,0-23.3,10.1-26,25.5H1824.9z"/>
</g>
<g>
	<g>
		<g>
			<path class="st2" d="M585.6,288c0,0-35.4,105.8,44.4,177c9.5-1.5,19-2.6,28.3-3.6C588.9,387.7,585.6,288,585.6,288z"/>
		</g>
		<g>
			<path class="st3" d="M658.3,461.4c5-0.5,9.9-0.9,14.8-1.3c46.9-3.3,94.6-2.1,140.7,7.3c25.6,5.2,51,10.2,77,13.2
				c41.3,4.8,83.6,6.6,125.4,3.2c7.8-21,16.3-49.2,25.6-86.7c0,0-103-45.5-456.3-109.3C585.6,288,588.9,387.7,658.3,461.4z"/>
		</g>
	</g>
	<g>
		<g>
			<path class="st4" d="M1025.2,498.8c-6.5,0.6-13,1-19.3,1.3c-6.4,0.4-13,0.8-19.5,1.4c-0.2,0-0.3,0-0.5,0
				c-43.5,1.5-84.2-4.6-127.4-11c-4-0.6-8-1.2-12-1.8c-16.3-2.6-32.8-5.7-48.9-8.7c-82.9-15.6-168.6-31.8-240.1,17.1
				c-3.9,2.7-9.3,1.7-11.9-2.2c-2.7-3.9-1.7-9.3,2.2-11.9c77.4-52.9,166.7-36,253-19.8c15.9,3,32.4,6.1,48.3,8.6
				c3.9,0.6,7.9,1.2,11.9,1.8c42.3,6.3,82.2,12.3,124.1,10.9c6.7-0.6,13.3-1,19.7-1.4c18.6-1.1,36.2-2.2,54.1-7.1
				c4.6-1.2,9.3,1.5,10.5,6c1.2,4.6-1.5,9.3-6,10.5C1050.5,496,1037.7,497.7,1025.2,498.8z"/>
		</g>
	</g>
	<g>
		<path class="st2" d="M1034.4,420.9c-0.1,0-0.2,0-0.3,0c-96.5-8-312.2-50.3-432.2-74.8c-3.7-0.8-6.7-1.4-8-1.6
			c-0.2,0-0.3,0-0.5-0.1c-3.9-0.9-3.2-4.3-3.2-4.5c0.6-2.7,2.5-3,4.5-2.7l0,0l0.3,0.1h0.1c0.6,0.1,1.1,0.2,1.7,0.3l6.5,1.3
			c119.8,24.5,335.2,66.7,431.3,74.7c2,0.2,3.5,1.9,3.4,4C1037.9,419.4,1036.2,420.9,1034.4,420.9z"/>
	</g>
	<g>
		<path class="st2" d="M1024.3,456.4C1024.3,456.4,1024.2,456.4,1024.3,456.4c-63.9-1.3-175-16.4-257-28.8
			c-88.8-13.5-163.4-26.8-164.2-26.9c-2-0.4-3.3-2.3-3-4.3s2.3-3.3,4.3-3c0.7,0.1,75.3,13.5,164,26.9
			c81.8,12.4,192.5,27.5,255.9,28.7c2,0,3.6,1.7,3.6,3.8C1027.9,454.8,1026.3,456.4,1024.3,456.4z"/>
	</g>
	<g>
		<g>
			<path class="st5" d="M756.8,248.6l72.1,207.3l-12.8,26.5l24.7,70.7c1.4,3.9,5.6,5.9,9.4,4.5l40.1-14c3.9-1.3,5.9-5.5,4.5-9.4
				l-24.7-70.7l-26.5-12.8l-72.1-207.3L756.8,248.6z"/>
		</g>
		<g>
			<path class="st5" d="M750.9,250.8l27.4-9.6c1.9-0.7,2.9-2.7,2.3-4.7l-2.7-7.8c-0.7-1.9-2.7-2.9-4.7-2.3l-27.4,9.6
				c-2,0.7-2.9,2.7-2.3,4.7l2.7,7.8C746.9,250.5,748.9,251.5,750.9,250.8z"/>
		</g>
		<g>
			<path class="st5" d="M894.8,534.2l-24.7-70.7l-26.5-12.8l-14.8,5.1L816,482.3l24.7,70.7c1.4,3.9,5.6,5.9,9.4,4.5l40.1-14
				C894.1,542.4,896.1,538.1,894.8,534.2z"/>
		</g>
		<g>
			<path class="st6" d="M855.5,531.9c0.4,1.3-0.3,2.9-1.6,3.4c-1.3,0.4-2.8-0.3-3.4-1.6l-17-49.1c-0.5-1.4,0.2-2.9,1.6-3.3
				c1.3-0.5,2.8,0.2,3.3,1.6L855.5,531.9z"/>
		</g>
		<g>
			<path class="st6" d="M865.2,528.5c0.5,1.4-0.2,2.9-1.6,3.3c-1.4,0.5-2.8-0.2-3.3-1.6l-17.1-49.1c-0.5-1.3,0.2-2.8,1.6-3.3
				c1.4-0.5,2.9,0.2,3.3,1.6L865.2,528.5z"/>
		</g>
		<g>
			<path class="st6" d="M857.9,476l17.2,49.1c0.4,1.3-0.3,2.8-1.6,3.4c-1.3,0.4-2.9-0.3-3.4-1.6l-17-49.1c-0.5-1.4,0.2-2.9,1.6-3.3
				C855.9,473.9,857.4,474.6,857.9,476z"/>
		</g>
	</g>
	<g>
		<path class="st1" d="M801,311.2c14.1,3.2,24.8,13.8,28.8,26.6l21,4.8c-2.8-24-20.5-44.9-45.4-50.6c-25-5.7-50.1,5.8-63,26.2
			l21.1,4.5C772.7,312.8,786.8,307.9,801,311.2z"/>
	</g>
</g>
</svg>
