<svg xmlns="http://www.w3.org/2000/svg" xmlns:xlink="http://www.w3.org/1999/xlink" viewBox="200.3 309.6 175.7 238.1"><path fill="#A3B8C4" d="M273 349.3h-.2c-1-.1-1.8-1-1.7-2l3.2-34.8c.1-1 1-1.8 2-1.7 1 .1 1.8 1 1.7 2l-3.2 34.8c0 1-.9 1.7-1.8 1.7z"/><path fill="#FF4545" d="M313.7 310.6l-39.4-.2-2.4 27.2 35.7-1.5 4-.2"/><path fill="#FF4545" d="M334.6 316.6l-19.3-.5-3.7 19.8-4.3 4.7 26.2.4-5.7-14.1"/><path fill="#B20000" d="M307.6 336.1l-.3 4.5 4.3-4.7"/><path fill="#03598E" d="M239 387.6l3-41.7c.2-3.3 3.4-5.7 6.7-4.9 12.4 2.9 39.9 9.5 50.3 14.3 2.1.9 3.3 3.1 3.1 5.4l-3.6 44.9c-.3 3.6-3.9 5.9-7.2 4.7l-48.6-17.1c-2.4-.9-3.9-3.2-3.7-5.6z"/><defs><path id="a" d="M239 387.6l3-41.7c.2-3.3 3.4-5.7 6.7-4.9 12.4 2.9 39.9 9.5 50.3 14.3 2.1.9 3.3 3.1 3.1 5.4l-3.6 44.9c-.3 3.6-3.9 5.9-7.2 4.7l-48.6-17.1c-2.4-.9-3.9-3.2-3.7-5.6z"/></defs><clipPath id="b"><use xlink:href="#a" overflow="visible"/></clipPath><g clip-path="url(#b)"><path fill="#0B4570" d="M235.7 330.7l64.9 81.3-69.6-10-2.8-52.5"/></g><g><path fill="#FFF" d="M279.7 372.7l-21.4-5.3c-3.9-1-6.3-4.9-5.3-8.9 1-3.9 4.9-6.3 8.9-5.3l21.4 5.3c3.9 1 6.3 4.9 5.3 8.9-1 3.8-4.9 6.2-8.9 5.3z"/></g><path fill="#A3B8C4" d="M361.5 416.5c-.1-.1-16-9.5-41.1-20.1-20.5-8.7-51-19.7-85.5-26h-.1l-.6-.1c-3.1-.6-6.2-1.1-9.3-1.5l-7.3-1.2c-1-.2-2 .5-2.2 1.5-.2 1 .5 2 1.5 2.2l2.3.4.8 15.3c0 1 .9 1.8 1.9 1.7 1 0 1.8-.9 1.7-1.9l-.7-14.4c.5.1 1 .1 1.5.2l9.3 1.5c1.3.2 2.6.5 3.9.7l-1.1 17.6c-.1 1 .7 1.9 1.7 2h.1c1 0 1.8-.7 1.9-1.7l1.1-17.1c5.7 1.2 11.3 2.5 16.8 3.8l-1.2 18.1c-.1 1 .7 1.9 1.7 2h.1c1 0 1.8-.7 1.9-1.7l1.1-17.3c5.8 1.5 11.4 3.2 16.8 4.8 0 .1 0 .3-.1.4l-1 17.6c-.1 1 .7 1.9 1.7 2h.1c1 0 1.8-.8 1.9-1.7l.9-17c5.2 1.7 10.1 3.3 14.8 5l-1.2 18.5c-.1 1 .7 1.9 1.7 2h.1c1 0 1.8-.7 1.9-1.7l1.1-17.4c6.2 2.3 11.9 4.6 17 6.7-.1.1-.1.3-.1.4l-3 17.2c-.2 1 .5 2 1.5 2.2h.3c.9 0 1.7-.6 1.8-1.5l2.9-16.8c5.3 2.3 10.2 4.5 14.5 6.5l-3 16c-.2 1 .5 2 1.5 2.2h.3c.9 0 1.7-.6 1.8-1.5l2.8-15c7.6 3.7 13.3 6.7 16.7 8.6l-5.4 15.4c-.3 1 .2 2 1.2 2.4.2.1.4.1.6.1.8 0 1.5-.5 1.7-1.3l5.1-14.7c.2.1.3.1.3.2.3.2.6.3 1 .3.6 0 1.3-.3 1.6-.9 1.2-1.3.9-2.5 0-3z"/><g><path fill="#008FD6" d="M220.2 386.4s-13.5 31 8.8 54.6c2.9-.2 5.8-.3 8.6-.3-19-24.1-17.4-54.3-17.4-54.3z"/><path fill="#33A1D8" d="M237.7 440.7h4.5c14.2.2 28.6 1.8 42.3 5.9 7.6 2.2 15.1 4.4 22.9 6 12.4 2.5 25.1 4.2 37.8 4.2 2.9-6.1 6.2-14.4 10-25.5 0 0-26.8-20-135-44.9 0 0-1.6 30.2 17.5 54.3z"/></g><g><path fill="#79C9E8" d="M347.5 461.5c-2 0-3.9 0-5.9-.1-1.9 0-3.9-.1-5.9-.1h-.1c-13.2-.7-25.3-3.6-38.2-6.7l-3.6-.9c-4.8-1.2-9.7-2.6-14.5-3.9-24.6-6.9-50.1-14-73-1.1-1.3.7-2.8.3-3.5-1-.7-1.3-.3-2.8 1-3.5 24.7-14 51.3-6.5 76.9.6 4.7 1.3 9.6 2.7 14.4 3.9 1.2.3 2.3.6 3.5.9 12.6 3 24.5 5.8 37.2 6.5 2 0 4.1 0 6 .1 5.7.1 11 .3 16.5-.7 1.4-.3 2.8.7 3 2.1.3 1.4-.7 2.8-2.1 3-4 .7-7.9.9-11.7.9z"/></g><g fill="#0B4570"><path d="M204.1 527.6c-1.4-1-2.3-2.7-2.3-4.7 0-3.2 2.6-5.7 5.8-5.7 1.6 0 2.7.6 3.5 1.1 4.2 3.1 8.9 5.1 14.4 5.1 5.1 0 8.1-2 8.1-5.3v-.1c0-3.1-1.9-4.7-11.3-7.1-11.3-2.9-18.6-6-18.6-17.2v-.2c0-10.2 8.2-16.9 19.6-16.9 6.8 0 12.8 1.7 17.8 5 1.4.8 2.7 2.5 2.7 4.9 0 3.2-2.6 5.7-5.8 5.7-1.2 0-2.2-.3-3.1-.9-4.1-2.4-7.9-3.8-11.8-3.8-4.7 0-7.2 2.2-7.2 4.9v.1c0 3.7 2.4 4.9 12.1 7.4 11.4 3 17.8 7.1 17.8 16.9v.1c0 11.2-8.5 17.4-20.6 17.4-7.4 0-14.8-2.2-21.1-6.7zM255.3 480.6c0-3.4 2.7-6.1 6.1-6.1 3.4 0 6.1 2.7 6.1 6.1v16c2.8-3.6 6.4-6.9 12.6-6.9 9.2 0 14.6 6.1 14.6 16v22.2c0 3.4-2.7 6.1-6.1 6.1-3.4 0-6.1-2.7-6.1-6.1v-18.4c0-5.8-2.7-8.7-7.4-8.7s-7.6 3-7.6 8.7v18.4c0 3.4-2.7 6.1-6.1 6.1s-6.1-2.7-6.1-6.1v-47.3zM305.1 480.3c0-3.5 3-5.7 6.8-5.7s6.8 2.2 6.8 5.7v.1c0 3.5-3 5.8-6.8 5.8s-6.8-2.2-6.8-5.8v-.1zm.7 15.8c0-3.4 2.7-6.1 6.1-6.1 3.4 0 6.1 2.7 6.1 6.1v31.8c0 3.4-2.7 6.1-6.1 6.1s-6.1-2.7-6.1-6.1v-31.8zM329.5 496.1c0-3.4 2.7-6.1 6.1-6.1 3.4 0 6.1 2.7 6.1 6.1v.6c3-4 7.1-7 13.4-7 10 0 19.6 7.9 19.6 22.2v.1c0 14.4-9.4 22.2-19.6 22.2-6.5 0-10.5-3-13.4-6.4v12.9c0 3.4-2.7 6.1-6.1 6.1-3.4 0-6.1-2.7-6.1-6.1v-44.6zm33 16v-.1c0-7.1-4.8-11.9-10.5-11.9s-10.4 4.7-10.4 11.9v.1c0 7.1 4.7 11.9 10.4 11.9s10.5-4.7 10.5-11.9z"/></g></svg>