<?xml version="1.0" encoding="utf-8"?>
<!-- Generator: Adobe Illustrator 19.0.1, SVG Export Plug-In . SVG Version: 6.00 Build 0)  -->
<!DOCTYPE svg PUBLIC "-//W3C//DTD SVG 1.1//EN" "http://www.w3.org/Graphics/SVG/1.1/DTD/svg11.dtd">
<svg version="1.1" id="Layer_1" xmlns="http://www.w3.org/2000/svg" xmlns:xlink="http://www.w3.org/1999/xlink" x="0px" y="0px"
	 viewBox="913.2 196.5 610 470" style="enable-background:new 913.2 196.5 610 470;" xml:space="preserve">
<style type="text/css">
	.st0{fill:none;stroke:#A3B8C4;stroke-width:12.2716;stroke-linecap:round;stroke-linejoin:round;stroke-miterlimit:10;}
	.st1{fill:#008FD6;}
	.st2{fill:#33A1D8;}
	.st3{fill:#79C9E8;}
	.st4{fill:#0B4570;}
	.st5{fill:#FF4545;}
	.st6{fill:#B20000;}
</style>
<g>
	<g>
		<path class="st0" d="M1510.3,338.2"/>
	</g>
</g>
<g>
	<g>
		<path class="st1" d="M1005.2,259.2c0,0-35.4,105.8,44.4,177c9.5-1.5,19-2.6,28.3-3.6C1008.5,358.9,1005.2,259.2,1005.2,259.2z"/>
	</g>
	<g>
		<path class="st2" d="M1077.9,432.7c5-0.5,9.9-0.9,14.8-1.3c46.9-3.3,94.6-2.1,140.7,7.3c25.6,5.2,51,10.2,77,13.2
			c41.3,4.8,83.6,6.6,125.4,3.2c7.8-21,16.3-49.2,25.6-86.7c0,0-103-45.5-456.3-109.3C1005.2,259.2,1008.5,358.9,1077.9,432.7z"/>
	</g>
</g>
<g>
	<g>
		<path class="st3" d="M1444.8,470.1c-6.5,0.6-13,1-19.3,1.3c-6.4,0.4-13,0.8-19.5,1.4c-0.2,0-0.3,0-0.5,0
			c-43.5,1.5-84.2-4.6-127.4-11c-4-0.6-8-1.2-12-1.8c-16.3-2.6-32.8-5.7-48.9-8.7c-82.9-15.6-168.6-31.8-240.1,17.1
			c-3.9,2.7-9.3,1.7-11.9-2.2c-2.7-3.9-1.7-9.3,2.2-11.9c77.4-52.9,166.7-36,253-19.8c15.9,3,32.4,6.1,48.3,8.6
			c3.9,0.6,7.9,1.2,11.9,1.8c42.3,6.3,82.2,12.3,124.1,10.9c6.7-0.6,13.3-1,19.7-1.4c18.6-1.1,36.2-2.2,54.1-7.1
			c4.6-1.2,9.3,1.5,10.5,6c1.2,4.6-1.5,9.3-6,10.5C1470.1,467.3,1457.4,469,1444.8,470.1z"/>
	</g>
</g>
<g>
	<path class="st4" d="M915.3,545.3c0-8.1,6.4-14.6,14.6-14.6h39.6c31.6,0,50.8,18.8,50.8,45.8v0.4c0,30.7-23.9,46.6-53.6,46.6h-22.2
		v26.3c0,8.1-6.4,14.6-14.6,14.6s-14.6-6.4-14.6-14.6V545.3z M967.6,597.5c14.6,0,23.1-8.7,23.1-20.1V577c0-13.1-9.1-20.1-23.7-20.1
		h-22.5v40.5L967.6,597.5L967.6,597.5z"/>
	<path class="st4" d="M1023.8,634.1v-0.4c0-22.2,16.9-32.4,40.9-32.4c10.2,0,17.6,1.7,24.8,4.2v-1.7c0-11.9-7.4-18.6-21.8-18.6
		c-8,0-14.4,1.1-19.9,2.8c-1.7,0.6-2.8,0.8-4.2,0.8c-6.6,0-11.9-5.1-11.9-11.7c0-5.1,3.2-9.5,7.8-11.2c9.1-3.4,18.9-5.3,32.4-5.3
		c15.7,0,27.1,4.2,34.3,11.4c7.6,7.6,11,18.8,11,32.4v46.2c0,7.8-6.2,13.8-14,13.8c-8.3,0-13.8-5.9-13.8-11.9v-0.2
		c-7,7.8-16.7,12.9-30.7,12.9C1039.5,665.2,1023.8,654.2,1023.8,634.1z M1089.9,627.5v-5.1c-4.9-2.3-11.4-3.8-18.4-3.8
		c-12.3,0-19.9,4.9-19.9,14v0.4c0,7.8,6.4,12.3,15.7,12.3C1080.8,645.3,1089.9,637.9,1089.9,627.5z"/>
	<path class="st4" d="M1237.1,650c0,8-6.4,14.4-14.4,14.4s-14.4-6.4-14.4-14.4v-1.3c-7,9.5-16.7,16.5-31.6,16.5
		c-23.7,0-46.2-18.6-46.2-52.5v-0.4c0-33.9,22.2-52.5,46.2-52.5c15.3,0,24.8,7,31.6,15.2v-36.7c0-8,6.4-14.4,14.4-14.4
		s14.4,6.4,14.4,14.4V650z M1159.2,612.3v0.4c0,16.9,11.4,28,24.8,28s24.6-11.2,24.6-28v-0.4c0-16.9-11.2-28-24.6-28
		C1170.6,584.3,1159.2,595.3,1159.2,612.3z"/>
	<path class="st4" d="M1357.9,650c0,8-6.4,14.4-14.4,14.4s-14.4-6.4-14.4-14.4v-1.3c-7,9.5-16.7,16.5-31.6,16.5
		c-23.7,0-46.2-18.6-46.2-52.5v-0.4c0-33.9,22.2-52.5,46.2-52.5c15.3,0,24.8,7,31.6,15.2v-36.7c0-8,6.4-14.4,14.4-14.4
		s14.4,6.4,14.4,14.4V650z M1280.1,612.3v0.4c0,16.9,11.4,28,24.8,28c13.4,0,24.6-11.2,24.6-28v-0.4c0-16.9-11.2-28-24.6-28
		C1291.5,584.3,1280.1,595.3,1280.1,612.3z"/>
	<path class="st4" d="M1378,538.3c0-8,6.4-14.4,14.4-14.4s14.4,6.4,14.4,14.4v111.8c0,8-6.4,14.4-14.4,14.4s-14.4-6.4-14.4-14.4
		V538.3z"/>
	<path class="st4" d="M1475,665.5c-30.5,0-53-21.4-53-52.5v-0.4c0-29,20.6-52.8,50.2-52.8c33.9,0,48.9,27.8,48.9,48.9
		c0,8.3-5.9,13.8-13.4,13.8h-57c2.8,13.1,11.9,19.9,24.8,19.9c8,0,14.6-2.5,20.5-6.8c2.1-1.5,4-2.3,7-2.3c6.4,0,11.2,4.9,11.2,11.4
		c0,3.8-1.7,6.6-3.8,8.5C1501.3,660.8,1489.8,665.5,1475,665.5z M1493.5,604.6c-1.7-12.9-9.3-21.6-21.4-21.6
		c-11.9,0-19.7,8.5-22,21.6H1493.5z"/>
</g>
<g>
	<path class="st1" d="M1454,392.2c-0.1,0-0.2,0-0.3,0c-96.5-8-312.2-50.3-432.2-74.8c-3.7-0.8-6.7-1.4-8-1.6c-0.2,0-0.3,0-0.5-0.1
		c-3.9-0.9-3.2-4.3-3.2-4.5c0.6-2.7,2.5-3,4.5-2.7l0,0l0.3,0.1h0.1c0.6,0.1,1.1,0.2,1.7,0.3l6.5,1.3
		c119.8,24.5,335.2,66.7,431.3,74.7c2,0.2,3.5,1.9,3.4,4C1457.5,390.7,1455.9,392.2,1454,392.2z"/>
</g>
<g>
	<path class="st1" d="M1443.9,427.7L1443.9,427.7c-63.9-1.3-175-16.4-257-28.8c-88.8-13.5-163.4-26.8-164.2-26.9
		c-2-0.4-3.3-2.3-3-4.3c0.3-2,2.3-3.3,4.3-3c0.7,0.1,75.3,13.5,164,26.9c81.8,12.4,192.5,27.5,255.9,28.7c2,0,3.6,1.7,3.6,3.8
		C1447.6,426.1,1445.9,427.7,1443.9,427.7z"/>
</g>
<g>
	<g>
		<path class="st5" d="M1176.4,219.9l72.1,207.3l-12.8,26.5l24.7,70.7c1.4,3.9,5.6,5.9,9.4,4.5l40.1-14c3.9-1.3,5.9-5.5,4.5-9.4
			l-24.7-70.7l-26.5-12.8l-72.1-207.3L1176.4,219.9z"/>
	</g>
	<g>
		<path class="st5" d="M1170.5,222.1l27.4-9.6c1.9-0.7,2.9-2.7,2.3-4.7l-2.7-7.8c-0.7-1.9-2.7-2.9-4.7-2.3l-27.4,9.6
			c-2,0.7-2.9,2.7-2.3,4.7l2.7,7.8C1166.5,221.7,1168.6,222.7,1170.5,222.1z"/>
	</g>
	<g>
		<path class="st5" d="M1314.4,505.5l-24.7-70.7l-26.5-12.8l-14.8,5.1l-12.8,26.5l24.7,70.7c1.4,3.9,5.6,5.9,9.4,4.5l40.1-14
			C1313.7,513.6,1315.8,509.4,1314.4,505.5z"/>
	</g>
	<g>
		<path class="st6" d="M1275.1,503.2c0.4,1.3-0.3,2.9-1.6,3.4c-1.3,0.4-2.8-0.3-3.4-1.6l-17-49.1c-0.5-1.4,0.2-2.9,1.6-3.3
			c1.3-0.5,2.8,0.2,3.3,1.6L1275.1,503.2z"/>
	</g>
	<g>
		<path class="st6" d="M1284.9,499.8c0.5,1.4-0.2,2.9-1.6,3.3c-1.4,0.5-2.8-0.2-3.3-1.6l-17.1-49.1c-0.5-1.3,0.2-2.8,1.6-3.3
			c1.4-0.5,2.9,0.2,3.3,1.6L1284.9,499.8z"/>
	</g>
	<g>
		<path class="st6" d="M1277.6,447.3l17.2,49.1c0.4,1.3-0.3,2.8-1.6,3.4c-1.3,0.4-2.9-0.3-3.4-1.6l-17-49.1
			c-0.5-1.4,0.2-2.9,1.6-3.3C1275.6,445.2,1277.1,445.9,1277.6,447.3z"/>
	</g>
</g>
<g>
	<path class="st4" d="M1220.7,282.4c14.1,3.2,24.8,13.8,28.8,26.6l21,4.8c-2.8-24-20.5-44.9-45.4-50.6c-25-5.7-50.1,5.8-63,26.2
		l21.1,4.5C1192.3,284.1,1206.4,279.2,1220.7,282.4z"/>
</g>
</svg>
