<svg id="Layer_1" xmlns="http://www.w3.org/2000/svg" xmlns:xlink="http://www.w3.org/1999/xlink" viewBox="1039.8 252 128.4 48"><style>.st0{fill:#A3B8C4;} .st1{fill:#FF4545;} .st2{fill:#B20000;} .st3{fill:#03598E;} .st4{clip-path:url(#SVGID_3_);} .st5{fill:#0B4570;} .st6{fill:#FFFFFF;} .st7{fill:none;stroke:#A3B8C4;stroke-width:10;stroke-linecap:round;stroke-linejoin:round;stroke-miterlimit:10;} .st8{fill:#008FD6;} .st9{fill:#33A1D8;} .st10{fill:#79C9E8;}</style><path class="st0" d="M1062.2 264.4c-.4 0-.6-.3-.6-.6l1-11.1c0-.3.3-.6.6-.5.3 0 .6.3.5.6l-1 11.1c0 .3-.2.5-.5.5z"/><path class="st1" d="M1075.1 252.1l-12.5-.1-.8 8.7 11.4-.5h1.2z"/><path class="st1" d="M1081.7 254l-6.1-.1-1.2 6.3-1.3 1.5 8.3.1-1.8-4.5z"/><path class="st2" d="M1073.2 260.2l-.1 1.5 1.3-1.5z"/><path id="SVGID_1_" class="st3" d="M1051.4 276.6l.9-13.2c.1-1.1 1.1-1.8 2.1-1.6 3.9.9 12.7 3 16 4.5.7.3 1.1 1 1 1.7l-1.1 14.2c-.1 1.1-1.2 1.9-2.3 1.5l-15.4-5.4c-.8-.2-1.3-1-1.2-1.7z"/><defs><path id="SVGID_2_" d="M1051.4 276.6l.9-13.2c.1-1.1 1.1-1.8 2.1-1.6 3.9.9 12.7 3 16 4.5.7.3 1.1 1 1 1.7l-1.1 14.2c-.1 1.1-1.2 1.9-2.3 1.5l-15.4-5.4c-.8-.2-1.3-1-1.2-1.7z"/></defs><clipPath id="SVGID_3_"><use xlink:href="#SVGID_2_" overflow="visible"/></clipPath><path class="st4 st5" d="M1050.3 258.5l20.7 25.8-22.1-3.2-.9-16.6z"/><path class="st6" d="M1064.3 271.8l-6.8-1.7c-1.2-.3-2-1.6-1.7-2.8.3-1.2 1.6-2 2.8-1.7l6.8 1.7c1.2.3 2 1.6 1.7 2.8-.3 1.3-1.5 2-2.8 1.7z"/><path class="st0" d="M1090.3 285.8s-5.1-3-13-6.4c-6.5-2.8-16.2-6.3-27.1-8.2h-.2c-1-.2-2-.3-3-.5l-2.3-.4c-.3-.1-.6.2-.7.5-.1.3.2.6.5.7l.7.1.2 4.9c0 .3.3.6.6.6s.6-.3.6-.6l-.2-4.6c.2 0 .3 0 .5.1l3 .5c.4.1.8.2 1.3.2l-.4 5.6c0 .3.2.6.6.6.3 0 .6-.2.6-.6l.3-5.4c1.8.4 3.6.8 5.3 1.2l-.4 5.7c0 .3.2.6.6.6.3 0 .6-.2.6-.6l.4-5.5c1.8.5 3.6 1 5.3 1.5v.1l-.3 5.6c0 .3.2.6.6.6.3 0 .6-.2.6-.6l.3-5.4c1.6.5 3.2 1.1 4.7 1.6l-.4 5.9c0 .3.2.6.6.6.3 0 .6-.2.6-.6l.4-5.5c2 .7 3.8 1.5 5.4 2.1v.1l-.9 5.4c-.1.3.2.6.5.7h.1c.3 0 .5-.2.6-.5l.9-5.3c1.7.7 3.2 1.4 4.6 2.1l-1 5.1c-.1.3.2.6.5.7h.1c.3 0 .5-.2.6-.5l.9-4.8c2.4 1.2 4.2 2.1 5.3 2.7l-1.7 4.9c-.1.3.1.6.4.8h.2c.2 0 .5-.2.6-.4l1.6-4.7c.1 0 .1 0 .1.1.1.1.2.1.3.1.2 0 .4-.1.5-.3-.1-.1-.2-.5-.5-.6z"/><path class="st8" d="M1045.4 276.2s-4.3 9.9 2.8 17.3c.9-.1 1.8-.1 2.7-.1-6-7.6-5.5-17.2-5.5-17.2z"/><path class="st9" d="M1051 293.4h1.4c4.5.1 9.1.6 13.4 1.9 2.4.7 4.8 1.4 7.3 1.9 3.9.8 8 1.3 12 1.3.9-1.9 2-4.6 3.2-8.1 0 0-8.5-6.3-42.9-14.3 0 .1-.5 9.7 5.6 17.3z"/><path class="st10" d="M1085.8 300h-3.8c-4.2-.2-8-1.1-12.1-2.1-.4-.1-.8-.2-1.1-.3-1.5-.4-3.1-.8-4.6-1.2-7.8-2.2-15.9-4.4-23.2-.4-.4.2-.9.1-1.1-.3s-.1-.9.3-1.1c7.9-4.4 16.3-2.1 24.4.2 1.5.4 3 .9 4.6 1.2.4.1.7.2 1.1.3 4 1 7.8 1.9 11.8 2.1h1.9c1.8 0 3.5.1 5.2-.2.4-.1.9.2 1 .7.1.4-.2.9-.7 1-1.2.1-2.4.1-3.7.1z"/><g><path class="st5" d="M1099.2 287.7c-.5-.4-.9-1.1-.9-1.9 0-1.3 1-2.3 2.3-2.3.6 0 1.1.2 1.4.5 1.7 1.3 3.6 2 5.8 2 2 0 3.3-.8 3.3-2.1v-.1c0-1.3-.8-1.9-4.6-2.9-4.6-1.2-7.5-2.4-7.5-6.9v-.1c0-4.1 3.3-6.9 8-6.9 2.8 0 5.2.7 7.2 2 .5.3 1.1 1 1.1 2 0 1.3-1 2.3-2.3 2.3-.5 0-.9-.1-1.3-.4-1.7-1-3.2-1.5-4.8-1.5-1.9 0-2.9.9-2.9 2v.1c0 1.5 1 2 4.9 3 4.6 1.2 7.2 2.9 7.2 6.8v.1c0 4.5-3.4 7-8.3 7-3.1 0-6.1-.9-8.6-2.7zm20.7-19c0-1.4 1.1-2.5 2.5-2.5s2.5 1.1 2.5 2.5v6.5c1.1-1.5 2.6-2.8 5.1-2.8 3.7 0 5.9 2.5 5.9 6.5v9c0 1.4-1.1 2.5-2.5 2.5s-2.5-1.1-2.5-2.5v-7.4c0-2.3-1.1-3.5-3-3.5s-3.1 1.2-3.1 3.5v7.4c0 1.4-1.1 2.5-2.5 2.5s-2.5-1.1-2.5-2.5l.1-19.2zm20.2-.2c0-1.4 1.2-2.3 2.8-2.3s2.8.9 2.8 2.3v.1c0 1.4-1.2 2.3-2.8 2.3s-2.8-.9-2.8-2.4zm.3 6.5c0-1.4 1.1-2.5 2.5-2.5s2.5 1.1 2.5 2.5v12.9c0 1.4-1.1 2.5-2.5 2.5s-2.5-1.1-2.5-2.5V275zm9.5 0c0-1.4 1.1-2.5 2.5-2.5s2.5 1.1 2.5 2.5v.2c1.2-1.6 2.9-2.8 5.4-2.8 4.1 0 7.9 3.2 7.9 9v.1c0 5.8-3.8 9-7.9 9-2.6 0-4.3-1.2-5.4-2.6v5.2c0 1.4-1.1 2.5-2.5 2.5s-2.5-1.1-2.5-2.5V275zm13.4 6.4c0-3-1.9-4.9-4.3-4.9s-4.2 1.9-4.2 4.8v.1c0 2.9 1.9 4.8 4.2 4.8 2.3 0 4.3-1.9 4.3-4.8z"/></g></svg>