<svg version="1.1" id="Layer_1" xmlns="http://www.w3.org/2000/svg" x="0" y="0" viewBox="913.2 196.5 610 470" xml:space="preserve"><style type="text/css">.st0{fill:none;stroke:#A3B8C4;stroke-width:12.2716;stroke-linecap:round;stroke-linejoin:round;stroke-miterlimit:10;} .st1{fill:#008FD6;} .st2{fill:#33A1D8;} .st3{fill:#79C9E8;} .st4{fill:#0B4570;} .st5{fill:#FF4545;} .st6{fill:#B20000;}</style><path class="st0" d="M1510.3 338.2"/><path class="st1" d="M1005.2 259.2s-35.4 105.8 44.4 177c9.5-1.5 19-2.6 28.3-3.6-69.4-73.7-72.7-173.4-72.7-173.4z"/><path class="st2" d="M1077.9 432.7c5-.5 9.9-.9 14.8-1.3 46.9-3.3 94.6-2.1 140.7 7.3 25.6 5.2 51 10.2 77 13.2 41.3 4.8 83.6 6.6 125.4 3.2 7.8-21 16.3-49.2 25.6-86.7 0 0-103-45.5-456.3-109.3.1.1 3.4 99.8 72.8 173.6z"/><path class="st3" d="M1444.8 470.1c-6.5.6-13 1-19.3 1.3-6.4.4-13 .8-19.5 1.4h-.5c-43.5 1.5-84.2-4.6-127.4-11l-12-1.8c-16.3-2.6-32.8-5.7-48.9-8.7-82.9-15.6-168.6-31.8-240.1 17.1-3.9 2.7-9.3 1.7-11.9-2.2-2.7-3.9-1.7-9.3 2.2-11.9 77.4-52.9 166.7-36 253-19.8 15.9 3 32.4 6.1 48.3 8.6 3.9.6 7.9 1.2 11.9 1.8 42.3 6.3 82.2 12.3 124.1 10.9 6.7-.6 13.3-1 19.7-1.4 18.6-1.1 36.2-2.2 54.1-7.1 4.6-1.2 9.3 1.5 10.5 6 1.2 4.6-1.5 9.3-6 10.5-12.9 3.5-25.6 5.2-38.2 6.3z"/><path class="st4" d="M915.3 545.3c0-8.1 6.4-14.6 14.6-14.6h39.6c31.6 0 50.8 18.8 50.8 45.8v.4c0 30.7-23.9 46.6-53.6 46.6h-22.2v26.3c0 8.1-6.4 14.6-14.6 14.6s-14.6-6.4-14.6-14.6V545.3zm52.3 52.2c14.6 0 23.1-8.7 23.1-20.1v-.4c0-13.1-9.1-20.1-23.7-20.1h-22.5v40.5l23.1.1zM1023.8 634.1v-.4c0-22.2 16.9-32.4 40.9-32.4 10.2 0 17.6 1.7 24.8 4.2v-1.7c0-11.9-7.4-18.6-21.8-18.6-8 0-14.4 1.1-19.9 2.8-1.7.6-2.8.8-4.2.8-6.6 0-11.9-5.1-11.9-11.7 0-5.1 3.2-9.5 7.8-11.2 9.1-3.4 18.9-5.3 32.4-5.3 15.7 0 27.1 4.2 34.3 11.4 7.6 7.6 11 18.8 11 32.4v46.2c0 7.8-6.2 13.8-14 13.8-8.3 0-13.8-5.9-13.8-11.9v-.2c-7 7.8-16.7 12.9-30.7 12.9-19.2 0-34.9-11-34.9-31.1zm66.1-6.6v-5.1c-4.9-2.3-11.4-3.8-18.4-3.8-12.3 0-19.9 4.9-19.9 14v.4c0 7.8 6.4 12.3 15.7 12.3 13.5 0 22.6-7.4 22.6-17.8zM1237.1 650c0 8-6.4 14.4-14.4 14.4s-14.4-6.4-14.4-14.4v-1.3c-7 9.5-16.7 16.5-31.6 16.5-23.7 0-46.2-18.6-46.2-52.5v-.4c0-33.9 22.2-52.5 46.2-52.5 15.3 0 24.8 7 31.6 15.2v-36.7c0-8 6.4-14.4 14.4-14.4s14.4 6.4 14.4 14.4V650zm-77.9-37.7v.4c0 16.9 11.4 28 24.8 28s24.6-11.2 24.6-28v-.4c0-16.9-11.2-28-24.6-28-13.4 0-24.8 11-24.8 28zM1357.9 650c0 8-6.4 14.4-14.4 14.4s-14.4-6.4-14.4-14.4v-1.3c-7 9.5-16.7 16.5-31.6 16.5-23.7 0-46.2-18.6-46.2-52.5v-.4c0-33.9 22.2-52.5 46.2-52.5 15.3 0 24.8 7 31.6 15.2v-36.7c0-8 6.4-14.4 14.4-14.4s14.4 6.4 14.4 14.4V650zm-77.8-37.7v.4c0 16.9 11.4 28 24.8 28s24.6-11.2 24.6-28v-.4c0-16.9-11.2-28-24.6-28-13.4 0-24.8 11-24.8 28zM1378 538.3c0-8 6.4-14.4 14.4-14.4s14.4 6.4 14.4 14.4v111.8c0 8-6.4 14.4-14.4 14.4s-14.4-6.4-14.4-14.4V538.3zM1475 665.5c-30.5 0-53-21.4-53-52.5v-.4c0-29 20.6-52.8 50.2-52.8 33.9 0 48.9 27.8 48.9 48.9 0 8.3-5.9 13.8-13.4 13.8h-57c2.8 13.1 11.9 19.9 24.8 19.9 8 0 14.6-2.5 20.5-6.8 2.1-1.5 4-2.3 7-2.3 6.4 0 11.2 4.9 11.2 11.4 0 3.8-1.7 6.6-3.8 8.5-9.1 7.6-20.6 12.3-35.4 12.3zm18.5-60.9c-1.7-12.9-9.3-21.6-21.4-21.6-11.9 0-19.7 8.5-22 21.6h43.4z"/><g><path class="st1" d="M1454 392.2h-.3c-96.5-8-312.2-50.3-432.2-74.8-3.7-.8-6.7-1.4-8-1.6-.2 0-.3 0-.5-.1-3.9-.9-3.2-4.3-3.2-4.5.6-2.7 2.5-3 4.5-2.7l.3.1h.1c.6.1 1.1.2 1.7.3l6.5 1.3c119.8 24.5 335.2 66.7 431.3 74.7 2 .2 3.5 1.9 3.4 4-.1 1.8-1.7 3.3-3.6 3.3z"/></g><g><path class="st1" d="M1443.9 427.7c-63.9-1.3-175-16.4-257-28.8-88.8-13.5-163.4-26.8-164.2-26.9-2-.4-3.3-2.3-3-4.3.3-2 2.3-3.3 4.3-3 .7.1 75.3 13.5 164 26.9 81.8 12.4 192.5 27.5 255.9 28.7 2 0 3.6 1.7 3.6 3.8.1 2-1.6 3.6-3.6 3.6z"/></g><g><path class="st5" d="M1176.4 219.9l72.1 207.3-12.8 26.5 24.7 70.7c1.4 3.9 5.6 5.9 9.4 4.5l40.1-14c3.9-1.3 5.9-5.5 4.5-9.4l-24.7-70.7-26.5-12.8-72.1-207.3-14.7 5.2z"/><path class="st5" d="M1170.5 222.1l27.4-9.6c1.9-.7 2.9-2.7 2.3-4.7l-2.7-7.8c-.7-1.9-2.7-2.9-4.7-2.3l-27.4 9.6c-2 .7-2.9 2.7-2.3 4.7l2.7 7.8c.7 1.9 2.8 2.9 4.7 2.3zM1314.4 505.5l-24.7-70.7-26.5-12.8-14.8 5.1-12.8 26.5 24.7 70.7c1.4 3.9 5.6 5.9 9.4 4.5l40.1-14c3.9-1.2 6-5.4 4.6-9.3z"/><path class="st6" d="M1275.1 503.2c.4 1.3-.3 2.9-1.6 3.4-1.3.4-2.8-.3-3.4-1.6l-17-49.1c-.5-1.4.2-2.9 1.6-3.3 1.3-.5 2.8.2 3.3 1.6l17.1 49zM1284.9 499.8c.5 1.4-.2 2.9-1.6 3.3-1.4.5-2.8-.2-3.3-1.6l-17.1-49.1c-.5-1.3.2-2.8 1.6-3.3 1.4-.5 2.9.2 3.3 1.6l17.1 49.1zM1277.6 447.3l17.2 49.1c.4 1.3-.3 2.8-1.6 3.4-1.3.4-2.9-.3-3.4-1.6l-17-49.1c-.5-1.4.2-2.9 1.6-3.3 1.2-.6 2.7.1 3.2 1.5z"/></g><g><path class="st4" d="M1220.7 282.4c14.1 3.2 24.8 13.8 28.8 26.6l21 4.8c-2.8-24-20.5-44.9-45.4-50.6-25-5.7-50.1 5.8-63 26.2l21.1 4.5c9.1-9.8 23.2-14.7 37.5-11.5z"/></g></svg>