<svg version="1.1" id="Layer_1" xmlns="http://www.w3.org/2000/svg" x="0" y="0" viewBox="542.1 224.6 1317 335" xml:space="preserve"><style type="text/css">.st0{fill:none;stroke:#A3B8C4;stroke-width:12.2716;stroke-linecap:round;stroke-linejoin:round;stroke-miterlimit:10;} .st1{fill:#0B4570;} .st2{fill:#008FD6;} .st3{fill:#33A1D8;} .st4{fill:#79C9E8;} .st5{fill:#FF4545;} .st6{fill:#B20000;}</style><path class="st0" d="M1090.7 367"/><path class="st1" d="M1141.7 335c0-9.6 7.6-17.2 17.2-17.2h46.8c37.4 0 60 22.2 60 54.2v.4c0 36.3-28.2 55.1-63.3 55.1h-26.2v31.1c0 9.6-7.6 17.2-17.2 17.2s-17.2-7.6-17.2-17.2l-.1-123.6zm61.7 61.8c17.2 0 27.3-10.3 27.3-23.7v-.4c0-15.4-10.7-23.7-28-23.7h-26.6v47.9l27.3-.1zM1269.9 439.9v-.4c0-26.2 19.9-38.3 48.3-38.3 12.1 0 20.8 2 29.3 4.9v-2c0-14.1-8.7-21.9-25.7-21.9-9.4 0-17 1.3-23.5 3.4-2 .7-3.4.9-4.9.9-7.8 0-14.1-6-14.1-13.9 0-6 3.8-11.2 9.2-13.2 10.7-4 22.4-6.3 38.3-6.3 18.6 0 32 4.9 40.5 13.4 9 9 13 22.2 13 38.3v54.6c0 9.2-7.4 16.3-16.6 16.3-9.8 0-16.3-6.9-16.3-14.1v-.2c-8.3 9.2-19.7 15.2-36.3 15.2-22.6 0-41.2-12.9-41.2-36.7zm78.1-7.8v-6c-5.8-2.7-13.4-4.5-21.7-4.5-14.5 0-23.5 5.8-23.5 16.6v.4c0 9.2 7.6 14.5 18.6 14.5 15.8 0 26.6-8.7 26.6-21zM1521.9 458.7c0 9.4-7.6 17-17 17s-17-7.6-17-17v-1.6c-8.3 11.2-19.7 19.5-37.4 19.5-28 0-54.6-21.9-54.6-62v-.4c0-40.1 26.2-62 54.6-62 18.1 0 29.3 8.3 37.4 17.9v-43.4c0-9.4 7.6-17 17-17s17 7.6 17 17v132zm-92-44.5v.4c0 19.9 13.4 33.1 29.3 33.1s29.1-13.2 29.1-33.1v-.4c0-19.9-13.2-33.1-29.1-33.1-15.9 0-29.3 13-29.3 33.1zM1664.6 458.7c0 9.4-7.6 17-17 17s-17-7.6-17-17v-1.6c-8.3 11.2-19.7 19.5-37.4 19.5-28 0-54.6-21.9-54.6-62v-.4c0-40.1 26.2-62 54.6-62 18.1 0 29.3 8.3 37.4 17.9v-43.4c0-9.4 7.6-17 17-17s17 7.6 17 17v132zm-91.9-44.5v.4c0 19.9 13.4 33.1 29.3 33.1s29.1-13.2 29.1-33.1v-.4c0-19.9-13.2-33.1-29.1-33.1-15.9 0-29.3 13-29.3 33.1zM1688.4 326.7c0-9.4 7.6-17 17-17s17 7.6 17 17v132c0 9.4-7.6 17-17 17s-17-7.6-17-17v-132zM1802.9 477.1c-36 0-62.7-25.3-62.7-62v-.4c0-34.2 24.4-62.4 59.3-62.4 40.1 0 57.7 32.9 57.7 57.7 0 9.8-6.9 16.3-15.9 16.3h-67.4c3.4 15.4 14.1 23.5 29.3 23.5 9.4 0 17.2-2.9 24.2-8.1 2.5-1.8 4.7-2.7 8.3-2.7 7.6 0 13.2 5.8 13.2 13.4 0 4.5-2 7.8-4.5 10.1-10.4 9-24 14.6-41.5 14.6zm22-72.1c-2-15.2-11-25.5-25.3-25.5-14.1 0-23.3 10.1-26 25.5h51.3z"/><g><path class="st2" d="M585.6 288S550.2 393.8 630 465c9.5-1.5 19-2.6 28.3-3.6-69.4-73.7-72.7-173.4-72.7-173.4z"/><path class="st3" d="M658.3 461.4c5-.5 9.9-.9 14.8-1.3 46.9-3.3 94.6-2.1 140.7 7.3 25.6 5.2 51 10.2 77 13.2 41.3 4.8 83.6 6.6 125.4 3.2 7.8-21 16.3-49.2 25.6-86.7 0 0-103-45.5-456.3-109.3.1.2 3.4 99.9 72.8 173.6z"/><path class="st4" d="M1025.2 498.8c-6.5.6-13 1-19.3 1.3-6.4.4-13 .8-19.5 1.4h-.5c-43.5 1.5-84.2-4.6-127.4-11l-12-1.8c-16.3-2.6-32.8-5.7-48.9-8.7-82.9-15.6-168.6-31.8-240.1 17.1-3.9 2.7-9.3 1.7-11.9-2.2-2.7-3.9-1.7-9.3 2.2-11.9 77.4-52.9 166.7-36 253-19.8 15.9 3 32.4 6.1 48.3 8.6 3.9.6 7.9 1.2 11.9 1.8 42.3 6.3 82.2 12.3 124.1 10.9 6.7-.6 13.3-1 19.7-1.4 18.6-1.1 36.2-2.2 54.1-7.1 4.6-1.2 9.3 1.5 10.5 6 1.2 4.6-1.5 9.3-6 10.5-12.9 3.5-25.7 5.2-38.2 6.3z"/><path class="st2" d="M1034.4 420.9h-.3c-96.5-8-312.2-50.3-432.2-74.8-3.7-.8-6.7-1.4-8-1.6-.2 0-.3 0-.5-.1-3.9-.9-3.2-4.3-3.2-4.5.6-2.7 2.5-3 4.5-2.7l.3.1h.1c.6.1 1.1.2 1.7.3l6.5 1.3c119.8 24.5 335.2 66.7 431.3 74.7 2 .2 3.5 1.9 3.4 4-.1 1.8-1.8 3.3-3.6 3.3zM1024.3 456.4s-.1 0 0 0c-63.9-1.3-175-16.4-257-28.8-88.8-13.5-163.4-26.8-164.2-26.9-2-.4-3.3-2.3-3-4.3s2.3-3.3 4.3-3c.7.1 75.3 13.5 164 26.9 81.8 12.4 192.5 27.5 255.9 28.7 2 0 3.6 1.7 3.6 3.8 0 2-1.6 3.6-3.6 3.6z"/><path class="st5" d="M756.8 248.6l72.1 207.3-12.8 26.5 24.7 70.7c1.4 3.9 5.6 5.9 9.4 4.5l40.1-14c3.9-1.3 5.9-5.5 4.5-9.4l-24.7-70.7-26.5-12.8-72.1-207.3-14.7 5.2z"/><path class="st5" d="M750.9 250.8l27.4-9.6c1.9-.7 2.9-2.7 2.3-4.7l-2.7-7.8c-.7-1.9-2.7-2.9-4.7-2.3l-27.4 9.6c-2 .7-2.9 2.7-2.3 4.7l2.7 7.8c.7 2 2.7 3 4.7 2.3zM894.8 534.2l-24.7-70.7-26.5-12.8-14.8 5.1-12.8 26.5 24.7 70.7c1.4 3.9 5.6 5.9 9.4 4.5l40.1-14c3.9-1.1 5.9-5.4 4.6-9.3z"/><path class="st6" d="M855.5 531.9c.4 1.3-.3 2.9-1.6 3.4-1.3.4-2.8-.3-3.4-1.6l-17-49.1c-.5-1.4.2-2.9 1.6-3.3 1.3-.5 2.8.2 3.3 1.6l17.1 49zM865.2 528.5c.5 1.4-.2 2.9-1.6 3.3-1.4.5-2.8-.2-3.3-1.6l-17.1-49.1c-.5-1.3.2-2.8 1.6-3.3 1.4-.5 2.9.2 3.3 1.6l17.1 49.1zM857.9 476l17.2 49.1c.4 1.3-.3 2.8-1.6 3.4-1.3.4-2.9-.3-3.4-1.6l-17-49.1c-.5-1.4.2-2.9 1.6-3.3 1.2-.6 2.7.1 3.2 1.5z"/><g><path class="st1" d="M801 311.2c14.1 3.2 24.8 13.8 28.8 26.6l21 4.8c-2.8-24-20.5-44.9-45.4-50.6-25-5.7-50.1 5.8-63 26.2l21.1 4.5c9.2-9.9 23.3-14.8 37.5-11.5z"/></g></g></svg>